<svg id="visual" viewBox="0 0 960 540" width="960" height="540" xmlns="http://www.w3.org/2000/svg" xmlns:xlink="http://www.w3.org/1999/xlink" version="1.1"><rect x="0" y="0" width="960" height="540" fill="#fd6051"></rect><defs><linearGradient id="grad1_0" x1="43.8%" y1="0%" x2="100%" y2="100%"><stop offset="14.444444444444446%" stop-color="#ff8866" stop-opacity="1"></stop><stop offset="85.55555555555554%" stop-color="#ff8866" stop-opacity="1"></stop></linearGradient></defs><defs><linearGradient id="grad1_1" x1="43.8%" y1="0%" x2="100%" y2="100%"><stop offset="14.444444444444446%" stop-color="#ff8866" stop-opacity="1"></stop><stop offset="85.55555555555554%" stop-color="#ff8362" stop-opacity="1"></stop></linearGradient></defs><defs><linearGradient id="grad1_2" x1="43.8%" y1="0%" x2="100%" y2="100%"><stop offset="14.444444444444446%" stop-color="#ff7d5f" stop-opacity="1"></stop><stop offset="85.55555555555554%" stop-color="#ff8362" stop-opacity="1"></stop></linearGradient></defs><defs><linearGradient id="grad1_3" x1="43.8%" y1="0%" x2="100%" y2="100%"><stop offset="14.444444444444446%" stop-color="#ff7d5f" stop-opacity="1"></stop><stop offset="85.55555555555554%" stop-color="#fe785c" stop-opacity="1"></stop></linearGradient></defs><defs><linearGradient id="grad1_4" x1="43.8%" y1="0%" x2="100%" y2="100%"><stop offset="14.444444444444446%" stop-color="#fe7259" stop-opacity="1"></stop><stop offset="85.55555555555554%" stop-color="#fe785c" stop-opacity="1"></stop></linearGradient></defs><defs><linearGradient id="grad1_5" x1="43.8%" y1="0%" x2="100%" y2="100%"><stop offset="14.444444444444446%" stop-color="#fe7259" stop-opacity="1"></stop><stop offset="85.55555555555554%" stop-color="#fe6c56" stop-opacity="1"></stop></linearGradient></defs><defs><linearGradient id="grad1_6" x1="43.8%" y1="0%" x2="100%" y2="100%"><stop offset="14.444444444444446%" stop-color="#fd6653" stop-opacity="1"></stop><stop offset="85.55555555555554%" stop-color="#fe6c56" stop-opacity="1"></stop></linearGradient></defs><defs><linearGradient id="grad1_7" x1="43.8%" y1="0%" x2="100%" y2="100%"><stop offset="14.444444444444446%" stop-color="#fd6653" stop-opacity="1"></stop><stop offset="85.55555555555554%" stop-color="#fd6051" stop-opacity="1"></stop></linearGradient></defs><defs><linearGradient id="grad2_0" x1="0%" y1="0%" x2="56.3%" y2="100%"><stop offset="14.444444444444446%" stop-color="#ff8866" stop-opacity="1"></stop><stop offset="85.55555555555554%" stop-color="#ff8866" stop-opacity="1"></stop></linearGradient></defs><defs><linearGradient id="grad2_1" x1="0%" y1="0%" x2="56.3%" y2="100%"><stop offset="14.444444444444446%" stop-color="#ff8362" stop-opacity="1"></stop><stop offset="85.55555555555554%" stop-color="#ff8866" stop-opacity="1"></stop></linearGradient></defs><defs><linearGradient id="grad2_2" x1="0%" y1="0%" x2="56.3%" y2="100%"><stop offset="14.444444444444446%" stop-color="#ff8362" stop-opacity="1"></stop><stop offset="85.55555555555554%" stop-color="#ff7d5f" stop-opacity="1"></stop></linearGradient></defs><defs><linearGradient id="grad2_3" x1="0%" y1="0%" x2="56.3%" y2="100%"><stop offset="14.444444444444446%" stop-color="#fe785c" stop-opacity="1"></stop><stop offset="85.55555555555554%" stop-color="#ff7d5f" stop-opacity="1"></stop></linearGradient></defs><defs><linearGradient id="grad2_4" x1="0%" y1="0%" x2="56.3%" y2="100%"><stop offset="14.444444444444446%" stop-color="#fe785c" stop-opacity="1"></stop><stop offset="85.55555555555554%" stop-color="#fe7259" stop-opacity="1"></stop></linearGradient></defs><defs><linearGradient id="grad2_5" x1="0%" y1="0%" x2="56.3%" y2="100%"><stop offset="14.444444444444446%" stop-color="#fe6c56" stop-opacity="1"></stop><stop offset="85.55555555555554%" stop-color="#fe7259" stop-opacity="1"></stop></linearGradient></defs><defs><linearGradient id="grad2_6" x1="0%" y1="0%" x2="56.3%" y2="100%"><stop offset="14.444444444444446%" stop-color="#fe6c56" stop-opacity="1"></stop><stop offset="85.55555555555554%" stop-color="#fd6653" stop-opacity="1"></stop></linearGradient></defs><defs><linearGradient id="grad2_7" x1="0%" y1="0%" x2="56.3%" y2="100%"><stop offset="14.444444444444446%" stop-color="#fd6051" stop-opacity="1"></stop><stop offset="85.55555555555554%" stop-color="#fd6653" stop-opacity="1"></stop></linearGradient></defs><g transform="translate(960, 0)"><path d="M0 540C-124.5 543.2 -249 546.4 -270 467.7C-291 388.9 -208.7 228.1 -236.4 136.5C-264.2 44.9 -402.1 22.4 -540 0L0 0Z" fill="#fd6352"></path><path d="M0 472.5C-108.9 475.3 -217.8 478.1 -236.2 409.2C-254.7 340.3 -182.6 199.6 -206.9 119.4C-231.2 39.3 -351.8 19.6 -472.5 0L0 0Z" fill="#fe6955"></path><path d="M0 405C-93.4 407.4 -186.7 409.8 -202.5 350.7C-218.3 291.7 -156.5 171.1 -177.3 102.4C-198.1 33.7 -301.6 16.8 -405 0L0 0Z" fill="#fe6f58"></path><path d="M0 337.5C-77.8 339.5 -155.6 341.5 -168.7 292.3C-181.9 243 -130.4 142.6 -147.8 85.3C-165.1 28.1 -251.3 14 -337.5 0L0 0Z" fill="#fe755a"></path><path d="M0 270C-62.2 271.6 -124.5 273.2 -135 233.8C-145.5 194.4 -104.3 114.1 -118.2 68.3C-132.1 22.4 -201 11.2 -270 0L0 0Z" fill="#fe7b5e"></path><path d="M0 202.5C-46.7 203.7 -93.4 204.9 -101.2 175.4C-109.1 145.8 -78.2 85.5 -88.7 51.2C-99.1 16.8 -150.8 8.4 -202.5 0L0 0Z" fill="#ff8061"></path><path d="M0 135C-31.1 135.8 -62.2 136.6 -67.5 116.9C-72.8 97.2 -52.2 57 -59.1 34.1C-66 11.2 -100.5 5.6 -135 0L0 0Z" fill="#ff8564"></path><path d="M0 67.5C-15.6 67.9 -31.1 68.3 -33.7 58.5C-36.4 48.6 -26.1 28.5 -29.6 17.1C-33 5.6 -50.3 2.8 -67.5 0L0 0Z" fill="#ff8866"></path></g><g transform="translate(0, 540)"><path d="M0 -540C43.8 -439 87.6 -338.1 176.5 -305.7C265.4 -273.3 399.5 -309.5 467.7 -270C535.8 -230.5 537.9 -115.2 540 0L0 0Z" fill="#fd6352"></path><path d="M0 -472.5C38.3 -384.2 76.6 -295.8 154.4 -267.5C232.3 -239.2 349.6 -270.8 409.2 -236.3C468.8 -201.7 470.6 -100.8 472.5 0L0 0Z" fill="#fe6955"></path><path d="M0 -405C32.8 -329.3 65.7 -253.6 132.4 -229.3C199.1 -205 299.7 -232.1 350.7 -202.5C401.8 -172.9 403.4 -86.4 405 0L0 0Z" fill="#fe6f58"></path><path d="M0 -337.5C27.4 -274.4 54.7 -211.3 110.3 -191.1C165.9 -170.8 249.7 -193.5 292.3 -168.8C334.9 -144 336.2 -72 337.5 0L0 0Z" fill="#fe755a"></path><path d="M0 -270C21.9 -219.5 43.8 -169 88.2 -152.9C132.7 -136.7 199.8 -154.8 233.8 -135C267.9 -115.2 268.9 -57.6 270 0L0 0Z" fill="#fe7b5e"></path><path d="M0 -202.5C16.4 -164.6 32.8 -126.8 66.2 -114.6C99.5 -102.5 149.8 -116.1 175.4 -101.3C200.9 -86.4 201.7 -43.2 202.5 0L0 0Z" fill="#ff8061"></path><path d="M0 -135C10.9 -109.8 21.9 -84.5 44.1 -76.4C66.4 -68.3 99.9 -77.4 116.9 -67.5C133.9 -57.6 134.5 -28.8 135 0L0 0Z" fill="#ff8564"></path><path d="M0 -67.5C5.5 -54.9 10.9 -42.3 22.1 -38.2C33.2 -34.2 49.9 -38.7 58.5 -33.8C67 -28.8 67.2 -14.4 67.5 0L0 0Z" fill="#ff8866"></path></g></svg>