<svg id="visual" viewBox="0 0 1920 6480" width="1920" height="6480" xmlns="http://www.w3.org/2000/svg" xmlns:xlink="http://www.w3.org/1999/xlink" version="1.1"><rect x="0" y="0" width="1920" height="6480" fill="#001122"></rect><path d="M0 2397L175 2822L349 2895L524 2792L698 2954L873 3033L1047 2804L1222 2630L1396 2393L1571 2484L1745 2330L1920 2916L1920 6481L1745 6481L1571 6481L1396 6481L1222 6481L1047 6481L873 6481L698 6481L524 6481L349 6481L175 6481L0 6481Z" fill="#fd6051"></path><path d="M0 3287L175 2996L349 2851L524 2698L698 3250L873 2935L1047 3111L1222 2678L1396 3113L1571 2858L1745 3133L1920 2900L1920 6481L1745 6481L1571 6481L1396 6481L1222 6481L1047 6481L873 6481L698 6481L524 6481L349 6481L175 6481L0 6481Z" fill="#fd6452"></path><path d="M0 3258L175 3376L349 3408L524 3407L698 3317L873 3324L1047 2996L1222 3384L1396 3077L1571 3155L1745 3091L1920 3351L1920 6481L1745 6481L1571 6481L1396 6481L1222 6481L1047 6481L873 6481L698 6481L524 6481L349 6481L175 6481L0 6481Z" fill="#fd6854"></path><path d="M0 3692L175 3713L349 3397L524 3456L698 3877L873 3836L1047 3927L1222 3601L1396 3839L1571 3728L1745 3590L1920 3531L1920 6481L1745 6481L1571 6481L1396 6481L1222 6481L1047 6481L873 6481L698 6481L524 6481L349 6481L175 6481L0 6481Z" fill="#fe6c56"></path><path d="M0 4063L175 3666L349 3764L524 4060L698 4020L873 3645L1047 4221L1222 3944L1396 3878L1571 4124L1745 4022L1920 4078L1920 6481L1745 6481L1571 6481L1396 6481L1222 6481L1047 6481L873 6481L698 6481L524 6481L349 6481L175 6481L0 6481Z" fill="#fe7057"></path><path d="M0 4267L175 4384L349 3973L524 4103L698 4060L873 4243L1047 4512L1222 4350L1396 4296L1571 4194L1745 4463L1920 4483L1920 6481L1745 6481L1571 6481L1396 6481L1222 6481L1047 6481L873 6481L698 6481L524 6481L349 6481L175 6481L0 6481Z" fill="#fe7359"></path><path d="M0 4422L175 4478L349 4502L524 4817L698 4757L873 4734L1047 4706L1222 4477L1396 4542L1571 4689L1745 4521L1920 4731L1920 6481L1745 6481L1571 6481L1396 6481L1222 6481L1047 6481L873 6481L698 6481L524 6481L349 6481L175 6481L0 6481Z" fill="#fe775b"></path><path d="M0 4956L175 4917L349 4776L524 4720L698 5071L873 4685L1047 4858L1222 4776L1396 4970L1571 4781L1745 4932L1920 4828L1920 6481L1745 6481L1571 6481L1396 6481L1222 6481L1047 6481L873 6481L698 6481L524 6481L349 6481L175 6481L0 6481Z" fill="#fe7a5d"></path><path d="M0 5316L175 5039L349 5237L524 5255L698 5195L873 5146L1047 5105L1222 5389L1396 4985L1571 4965L1745 5317L1920 5147L1920 6481L1745 6481L1571 6481L1396 6481L1222 6481L1047 6481L873 6481L698 6481L524 6481L349 6481L175 6481L0 6481Z" fill="#fe7e5f"></path><path d="M0 5479L175 5668L349 5481L524 5297L698 5527L873 5676L1047 5585L1222 5580L1396 5647L1571 5444L1745 5680L1920 5470L1920 6481L1745 6481L1571 6481L1396 6481L1222 6481L1047 6481L873 6481L698 6481L524 6481L349 6481L175 6481L0 6481Z" fill="#ff8161"></path><path d="M0 5853L175 5723L349 5746L524 5816L698 5849L873 5925L1047 5638L1222 5845L1396 5977L1571 5974L1745 5638L1920 5979L1920 6481L1745 6481L1571 6481L1396 6481L1222 6481L1047 6481L873 6481L698 6481L524 6481L349 6481L175 6481L0 6481Z" fill="#ff8564"></path><path d="M0 6126L175 6112L349 6185L524 6057L698 6173L873 6296L1047 6188L1222 6254L1396 6146L1571 6011L1745 6221L1920 6072L1920 6481L1745 6481L1571 6481L1396 6481L1222 6481L1047 6481L873 6481L698 6481L524 6481L349 6481L175 6481L0 6481Z" fill="#ff8866"></path></svg>